<svg width="480" height="323" viewBox="0 0 480 323" xmlns="http://www.w3.org/2000/svg" xmlns:xlink="http://www.w3.org/1999/xlink" style="background:#fff"><title>subscriber_push</title><defs><rect id="a" width="113" height="45" rx="2"/><rect id="b" width="113" height="45" rx="2"/><rect id="c" width="164" height="45" rx="2"/><path d="M.018 16.826c.047.46.191.912.433 1.325L8.13 31.303a3.369 3.369 0 0 0 2.687 1.656h15.81a3.369 3.369 0 0 0 2.688-1.656l7.679-13.152a3.293 3.293 0 0 0 0-3.326l-7.68-13.152A3.371 3.371 0 0 0 26.402.01H11.043A3.371 3.371 0 0 0 8.13 1.673L.45 14.825a3.298 3.298 0 0 0-.432 1.325v.676" id="d"/><rect id="f" width="164" height="45" rx="2"/><path d="M.018 16.826c.047.46.191.912.433 1.325L8.13 31.303a3.369 3.369 0 0 0 2.687 1.656h15.81a3.369 3.369 0 0 0 2.688-1.656l7.679-13.152a3.293 3.293 0 0 0 0-3.326l-7.68-13.152A3.371 3.371 0 0 0 26.402.01H11.043A3.371 3.371 0 0 0 8.13 1.673L.45 14.825a3.298 3.298 0 0 0-.432 1.325v.676" id="g"/></defs><g fill="none" fill-rule="evenodd"><path d="M262.575 298H73.425c-1.34 0-2.425-1.324-2.425-2.958V16.958C71 15.324 72.085 14 73.425 14h189.15c1.34 0 2.425 1.324 2.425 2.958v278.084c0 1.634-1.085 2.958-2.425 2.958l51.71-122.81" fill="#E1F5FE"/><g transform="translate(334 47)"><use fill="#FFF" xlink:href="#a"/><rect stroke="#E0E0E0" x=".5" y=".5" width="112" height="44" rx="2"/></g><text font-family="Roboto-Regular, Roboto" font-size="12" fill="#212121" transform="translate(334 47)"><tspan x="49" y="27.875">Subscriber</tspan></text><path d="M359.333 73.625c-3.107 0-9.333 1.755-9.333 5.25v3.75h9.333V79.25c0-1.274.44-3.51 3.16-5.205-1.16-.27-2.28-.42-3.16-.42m10 1.5c-2.44 0-7.333 1.38-7.333 4.125v3.375h14.666V79.25c0-2.745-4.893-4.125-7.333-4.125m-10-4.5c2.213 0 3.987-2.01 3.987-4.5s-1.774-4.5-3.987-4.5-4 2.01-4 4.5 1.787 4.5 4 4.5m10 1.5c1.84 0 3.32-1.68 3.32-3.75 0-2.07-1.48-3.75-3.32-3.75-1.84 0-3.333 1.68-3.333 3.75 0 2.07 1.493 3.75 3.333 3.75" fill="#616161"/><g transform="translate(334 240)"><use fill="#FFF" xlink:href="#b"/><rect stroke="#E0E0E0" x=".5" y=".5" width="112" height="44" rx="2"/></g><text font-family="Roboto-Regular, Roboto" font-size="12" fill="#212121" transform="translate(334 240)"><tspan x="49" y="27.875">Subscriber</tspan></text><path d="M359.333 266.625c-3.107 0-9.333 1.755-9.333 5.25v3.75h9.333v-3.375c0-1.274.44-3.51 3.16-5.205-1.16-.27-2.28-.42-3.16-.42m10 1.5c-2.44 0-7.333 1.38-7.333 4.125v3.375h14.666v-3.375c0-2.745-4.893-4.125-7.333-4.125m-10-4.5c2.213 0 3.987-2.01 3.987-4.5s-1.774-4.5-3.987-4.5-4 2.01-4 4.5 1.787 4.5 4 4.5m10 1.5c1.84 0 3.32-1.68 3.32-3.75 0-2.07-1.48-3.75-3.32-3.75-1.84 0-3.333 1.68-3.333 3.75 0 2.07 1.493 3.75 3.333 3.75" fill="#616161"/><text font-family="Roboto-Medium, Roboto" font-size="12" font-weight="400" fill="#000" transform="translate(-37 -30)"><tspan x="122" y="64">Cloud Pub/Sub</tspan></text><g transform="translate(85 48)"><use fill="#FFF" xlink:href="#c"/><rect stroke="#E0E0E0" x=".5" y=".5" width="163" height="44" rx="2"/></g><text font-family="Roboto-Regular, Roboto" font-size="12" fill="#000" transform="translate(85 48)"><tspan x="62" y="26">Cloud Pub/Sub</tspan></text><g transform="translate(97 54)"><mask id="e" fill="#fff"><use xlink:href="#d"/></mask><use fill="#4285F4" xlink:href="#d"/><path d="M13.546 11.826l-2.244 2.132 3.812 3.77 2.89-1.65V14.86l-1.154.233-3.304-3.267m6.568-3.912l-.75 1.386h.077v6.778l5.936 3.388-.719 1.232-5.936-3.39-5.936 3.39-.229-.393-1.502 1.18 11.61 11.481H26.4a3.371 3.371 0 0 0 2.914-1.663l6.047-10.358-9.263-9.159-1.713.351-4.272-4.223" fill-opacity=".1" fill="#000" mask="url(#e)"/></g><path d="M121.239 65.56a1.567 1.567 0 0 1 2.127.564 1.53 1.53 0 0 1-.57 2.104 1.567 1.567 0 0 1-2.127-.564 1.53 1.53 0 0 1 .57-2.104m-12.591 2.668a1.53 1.53 0 0 1-.57-2.104 1.567 1.567 0 0 1 2.128-.564c.745.426 1 1.367.57 2.104a1.567 1.567 0 0 1-2.128.564m8.632 9.448c0 .85-.697 1.54-1.558 1.54-.86 0-1.557-.69-1.557-1.54 0-.85.697-1.54 1.557-1.54s1.558.69 1.558 1.54m1.535-6.244a3.191 3.191 0 0 1-.72 1.232l3.563 2.034.719-1.232-3.562-2.034m-6.701.295l-3.046 1.74.49.838 2.876-2.261-.32-.317" fill="#FFF"/><path d="M112.63 71.432l-.516.295.32.317-2.877 2.26.23.394 3.563-2.034a3.191 3.191 0 0 1-.72-1.232m3.734-8.132h-1.36v4.068h.003l-.001-.002.741-2.924.617-1.142" fill="#FFF"/><path d="M116.441 63.3h-.077l-.617 1.142-.741 2.924.001.001a3.274 3.274 0 0 1 1.434.001V63.3" fill="#FFF"/><path d="M116.441 70.078v.41h-.719l.36.616-.36.205 2.373 1.355c.326-.348.575-.767.72-1.232l-2.374-1.354" fill="#EDEDED"/><path d="M115.003 70.078l-2.373 1.354c.145.465.394.884.72 1.232l2.732-1.56-.36-.616h-.719v-.41" fill="#EDEDED"/><path d="M115.007 67.367l-.004.001v1.492l1.257-.254-1.253-1.239" fill="#FFF"/><path d="M115.722 67.289c-.245 0-.485.027-.715.078l1.253 1.24-1.257.253v1.628h1.438v-3.12a3.289 3.289 0 0 0-.719-.08" fill="#EDEDED"/><path d="M118.239 70.488c0 1.374-1.127 2.488-2.517 2.488s-2.516-1.114-2.516-2.488c0-1.374 1.126-2.488 2.516-2.488 1.39 0 2.517 1.114 2.517 2.488m-9.8 1.901a1.99 1.99 0 0 1 2.7.715 1.942 1.942 0 0 1-.724 2.67c-.945.54-2.154.22-2.7-.715a1.943 1.943 0 0 1 .724-2.67m12.591 3.386a1.943 1.943 0 0 1-.725-2.67 1.99 1.99 0 0 1 2.7-.716c.947.54 1.27 1.735.725 2.67a1.989 1.989 0 0 1-2.7.716M117.7 63.3c0 1.08-.886 1.955-1.978 1.955a1.966 1.966 0 0 1-1.977-1.955c0-1.08.885-1.955 1.977-1.955s1.978.876 1.978 1.955" fill="#FFF"/><g transform="translate(88 240)"><use fill="#FFF" xlink:href="#f"/><rect stroke="#E0E0E0" x=".5" y=".5" width="163" height="44" rx="2"/></g><text font-family="Roboto-Regular, Roboto" font-size="12" fill="#000" transform="translate(88 240)"><tspan x="62" y="26">Cloud Pub/Sub</tspan></text><g transform="translate(100 246)"><mask id="h" fill="#fff"><use xlink:href="#g"/></mask><use fill="#4285F4" xlink:href="#g"/><path d="M13.546 11.826l-2.244 2.132 3.812 3.77 2.89-1.65V14.86l-1.154.233-3.304-3.267m6.568-3.912l-.75 1.386h.077v6.778l5.936 3.388-.719 1.232-5.936-3.39-5.936 3.39-.229-.393-1.502 1.18 11.61 11.481H26.4a3.371 3.371 0 0 0 2.914-1.663l6.047-10.358-9.263-9.159-1.713.351-4.272-4.223" fill-opacity=".1" fill="#000" mask="url(#h)"/></g><path d="M124.239 257.56a1.567 1.567 0 0 1 2.127.564 1.53 1.53 0 0 1-.57 2.104 1.567 1.567 0 0 1-2.127-.564 1.53 1.53 0 0 1 .57-2.104m-12.591 2.668a1.53 1.53 0 0 1-.57-2.104 1.567 1.567 0 0 1 2.128-.564c.745.426 1 1.367.57 2.104a1.567 1.567 0 0 1-2.128.564m8.632 9.448c0 .85-.697 1.54-1.558 1.54-.86 0-1.557-.69-1.557-1.54 0-.85.697-1.54 1.557-1.54s1.558.69 1.558 1.54m1.535-6.244a3.191 3.191 0 0 1-.72 1.232l3.563 2.034.719-1.232-3.562-2.034m-6.701.295l-3.046 1.74.49.838 2.876-2.261-.32-.317" fill="#FFF"/><path d="M115.63 263.432l-.516.295.32.317-2.877 2.26.23.394 3.563-2.034a3.191 3.191 0 0 1-.72-1.232m3.734-8.132h-1.36v4.068h.003l-.001-.002.741-2.924.617-1.142" fill="#FFF"/><path d="M119.441 255.3h-.077l-.617 1.142-.741 2.924.001.001a3.274 3.274 0 0 1 1.434.001V255.3" fill="#FFF"/><path d="M119.441 262.078v.41h-.719l.36.616-.36.205 2.373 1.355c.326-.348.575-.767.72-1.232l-2.374-1.354" fill="#EDEDED"/><path d="M118.003 262.078l-2.373 1.354c.145.465.394.884.72 1.232l2.732-1.56-.36-.616h-.719v-.41" fill="#EDEDED"/><path d="M118.007 259.367l-.004.001v1.492l1.257-.254-1.253-1.239" fill="#FFF"/><path d="M118.722 259.289c-.245 0-.485.027-.715.078l1.253 1.24-1.257.253v1.628h1.438v-3.12a3.289 3.289 0 0 0-.719-.08" fill="#EDEDED"/><path d="M121.239 262.488c0 1.374-1.127 2.488-2.517 2.488s-2.516-1.114-2.516-2.488c0-1.374 1.126-2.488 2.516-2.488 1.39 0 2.517 1.114 2.517 2.488m-9.8 1.901a1.99 1.99 0 0 1 2.7.715 1.942 1.942 0 0 1-.724 2.67c-.945.54-2.154.22-2.7-.715a1.943 1.943 0 0 1 .724-2.67m12.591 3.386a1.943 1.943 0 0 1-.725-2.67 1.99 1.99 0 0 1 2.7-.716c.947.54 1.27 1.735.725 2.67a1.989 1.989 0 0 1-2.7.716M120.7 255.3c0 1.08-.886 1.955-1.978 1.955a1.966 1.966 0 0 1-1.977-1.955c0-1.08.885-1.955 1.977-1.955s1.978.876 1.978 1.955" fill="#FFF"/><path d="M396.5 80.5v118" stroke="#E0E0E0" stroke-linecap="square"/><path d="M396.5 91.5v148m-226-146v146" stroke="#979797" stroke-linecap="square"/><path d="M395.5 218.5h-224m0 0l10.8 3v-6l-10.8 3z" stroke="#15C" stroke-linecap="square"/><text font-family="Roboto-Regular, Roboto" font-size="10" letter-spacing="-.106" fill="#757575" transform="translate(-37 -30)"><tspan x="325" y="245">Acks</tspan></text><text font-family="Roboto-Regular, Roboto" font-size="10" letter-spacing="-.106" fill="#757575" transform="translate(-37 -30)"><tspan x="322" y="214">(optional)</tspan></text><text font-family="Roboto-Regular, Roboto" font-size="10" letter-spacing="-.106" fill="#757575" transform="translate(-37 -30)"><tspan x="319" y="199">Modify ack deadline</tspan></text><path d="M396.5 173.5h-225m0 0l10.8 3v-6l-10.8 3z" stroke="#979797" stroke-linecap="square"/><text font-family="Roboto-Regular, Roboto" font-size="10" letter-spacing="-.106" fill="#757575" transform="translate(-37 -30)"><tspan x="242" y="155">Messages</tspan></text><path d="M170.5 129.5h224m0 0l-10.8-3v6l10.8-3z" stroke="#15C" stroke-linecap="square"/></g></svg>