<svg width="500" height="328" viewBox="0 0 500 328" xmlns="http://www.w3.org/2000/svg" xmlns:xlink="http://www.w3.org/1999/xlink" style="background:#fff"><title>subscriber_pull</title><defs><rect id="a" width="113" height="45" rx="2"/><rect id="b" width="113" height="45" rx="2"/><rect id="c" width="164" height="45" rx="2"/><path d="M.018 16.826c.047.46.191.912.433 1.325L8.13 31.303a3.369 3.369 0 0 0 2.687 1.656h15.81a3.369 3.369 0 0 0 2.688-1.656l7.679-13.152a3.293 3.293 0 0 0 0-3.326l-7.68-13.152A3.371 3.371 0 0 0 26.402.01H11.043A3.371 3.371 0 0 0 8.13 1.673L.45 14.825a3.298 3.298 0 0 0-.432 1.325v.676" id="d"/><rect id="f" width="164" height="45" rx="2"/><path d="M.018 16.826c.047.46.191.912.433 1.325L8.13 31.303a3.369 3.369 0 0 0 2.687 1.656h15.81a3.369 3.369 0 0 0 2.688-1.656l7.679-13.152a3.293 3.293 0 0 0 0-3.326l-7.68-13.152A3.371 3.371 0 0 0 26.402.01H11.043A3.371 3.371 0 0 0 8.13 1.673L.45 14.825a3.298 3.298 0 0 0-.432 1.325v.676" id="g"/></defs><g fill="none" fill-rule="evenodd"><path d="M287.337 313H79.663C78.19 313 77 311.606 77 309.885V17.115C77 15.394 78.191 14 79.662 14h207.675c1.472 0 2.663 1.394 2.663 3.115v292.77c0 1.721-1.191 3.115-2.663 3.115" fill="#E1F5FE"/><g transform="translate(340 45)"><use fill="#FFF" xlink:href="#a"/><rect stroke="#E0E0E0" x=".5" y=".5" width="112" height="44" rx="2"/></g><text font-family="Roboto-Regular, Roboto" font-size="12" fill="#212121" transform="translate(340 45)"><tspan x="49" y="27.875">Subscriber</tspan></text><path d="M365.333 71.625c-3.107 0-9.333 1.755-9.333 5.25v3.75h9.333V77.25c0-1.274.44-3.51 3.16-5.205-1.16-.27-2.28-.42-3.16-.42m10 1.5c-2.44 0-7.333 1.38-7.333 4.125v3.375h14.666V77.25c0-2.745-4.893-4.125-7.333-4.125m-10-4.5c2.213 0 3.987-2.01 3.987-4.5s-1.774-4.5-3.987-4.5-4 2.01-4 4.5 1.787 4.5 4 4.5m10 1.5c1.84 0 3.32-1.68 3.32-3.75 0-2.07-1.48-3.75-3.32-3.75-1.84 0-3.333 1.68-3.333 3.75 0 2.07 1.493 3.75 3.333 3.75" fill="#616161"/><g transform="translate(346 257)"><use fill="#FFF" xlink:href="#b"/><rect stroke="#E0E0E0" x=".5" y=".5" width="112" height="44" rx="2"/></g><text font-family="Roboto-Regular, Roboto" font-size="12" fill="#212121" transform="translate(346 257)"><tspan x="49" y="27.875">Subscriber</tspan></text><path d="M371.333 283.625c-3.107 0-9.333 1.755-9.333 5.25v3.75h9.333v-3.375c0-1.274.44-3.51 3.16-5.205-1.16-.27-2.28-.42-3.16-.42m10 1.5c-2.44 0-7.333 1.38-7.333 4.125v3.375h14.666v-3.375c0-2.745-4.893-4.125-7.333-4.125m-10-4.5c2.213 0 3.987-2.01 3.987-4.5s-1.774-4.5-3.987-4.5-4 2.01-4 4.5 1.787 4.5 4 4.5m10 1.5c1.84 0 3.32-1.68 3.32-3.75 0-2.07-1.48-3.75-3.32-3.75-1.84 0-3.333 1.68-3.333 3.75 0 2.07 1.493 3.75 3.333 3.75" fill="#616161"/><text font-family="Roboto-Medium, Roboto" font-size="12" font-weight="400" fill="#000" transform="translate(-31 -21)"><tspan x="122" y="61">Cloud Pub/Sub</tspan></text><g transform="translate(91 46)"><use fill="#FFF" xlink:href="#c"/><rect stroke="#E0E0E0" x=".5" y=".5" width="163" height="44" rx="2"/></g><text font-family="Roboto-Regular, Roboto" font-size="12" fill="#000" transform="translate(91 46)"><tspan x="62" y="26">Cloud Pub/Sub</tspan></text><g transform="translate(103 52)"><mask id="e" fill="#fff"><use xlink:href="#d"/></mask><use fill="#4285F4" xlink:href="#d"/><path d="M13.546 11.826l-2.244 2.132 3.812 3.77 2.89-1.65V14.86l-1.154.233-3.304-3.267m6.568-3.912l-.75 1.386h.077v6.778l5.936 3.388-.719 1.232-5.936-3.39-5.936 3.39-.229-.393-1.502 1.18 11.61 11.481H26.4a3.371 3.371 0 0 0 2.914-1.663l6.047-10.358-9.263-9.159-1.713.351-4.272-4.223" fill-opacity=".1" fill="#000" mask="url(#e)"/></g><path d="M127.239 63.56a1.567 1.567 0 0 1 2.127.564 1.53 1.53 0 0 1-.57 2.104 1.567 1.567 0 0 1-2.127-.564 1.53 1.53 0 0 1 .57-2.104m-12.591 2.668a1.53 1.53 0 0 1-.57-2.104 1.567 1.567 0 0 1 2.128-.564c.745.426 1 1.367.57 2.104a1.567 1.567 0 0 1-2.128.564m8.632 9.448c0 .85-.697 1.54-1.558 1.54-.86 0-1.557-.69-1.557-1.54 0-.85.697-1.54 1.557-1.54s1.558.69 1.558 1.54m1.535-6.244a3.191 3.191 0 0 1-.72 1.232l3.563 2.034.719-1.232-3.562-2.034m-6.701.295l-3.046 1.74.49.838 2.876-2.261-.32-.317" fill="#FFF"/><path d="M118.63 69.432l-.516.295.32.317-2.877 2.26.23.394 3.563-2.034a3.191 3.191 0 0 1-.72-1.232m3.734-8.132h-1.36v4.068h.003l-.001-.002.741-2.924.617-1.142" fill="#FFF"/><path d="M122.441 61.3h-.077l-.617 1.142-.741 2.924.001.001a3.274 3.274 0 0 1 1.434.001V61.3" fill="#FFF"/><path d="M122.441 68.078v.41h-.719l.36.616-.36.205 2.373 1.355c.326-.348.575-.767.72-1.232l-2.374-1.354" fill="#EDEDED"/><path d="M121.003 68.078l-2.373 1.354c.145.465.394.884.72 1.232l2.732-1.56-.36-.616h-.719v-.41" fill="#EDEDED"/><path d="M121.007 65.367l-.004.001v1.492l1.257-.254-1.253-1.239" fill="#FFF"/><path d="M121.722 65.289c-.245 0-.485.027-.715.078l1.253 1.24-1.257.253v1.628h1.438v-3.12a3.289 3.289 0 0 0-.719-.08" fill="#EDEDED"/><path d="M124.239 68.488c0 1.374-1.127 2.488-2.517 2.488s-2.516-1.114-2.516-2.488c0-1.374 1.126-2.488 2.516-2.488 1.39 0 2.517 1.114 2.517 2.488m-9.8 1.901a1.99 1.99 0 0 1 2.7.715 1.942 1.942 0 0 1-.724 2.67c-.945.54-2.154.22-2.7-.715a1.943 1.943 0 0 1 .724-2.67m12.591 3.386a1.943 1.943 0 0 1-.725-2.67 1.99 1.99 0 0 1 2.7-.716c.947.54 1.27 1.735.725 2.67a1.989 1.989 0 0 1-2.7.716M123.7 61.3c0 1.08-.886 1.955-1.978 1.955a1.966 1.966 0 0 1-1.977-1.955c0-1.08.885-1.955 1.977-1.955s1.978.876 1.978 1.955" fill="#FFF"/><g transform="translate(94 257)"><use fill="#FFF" xlink:href="#f"/><rect stroke="#E0E0E0" x=".5" y=".5" width="163" height="44" rx="2"/></g><text font-family="Roboto-Regular, Roboto" font-size="12" fill="#000" transform="translate(94 257)"><tspan x="62" y="26">Cloud Pub/Sub</tspan></text><g transform="translate(106 263)"><mask id="h" fill="#fff"><use xlink:href="#g"/></mask><use fill="#4285F4" xlink:href="#g"/><path d="M13.546 11.826l-2.244 2.132 3.812 3.77 2.89-1.65V14.86l-1.154.233-3.304-3.267m6.568-3.912l-.75 1.386h.077v6.778l5.936 3.388-.719 1.232-5.936-3.39-5.936 3.39-.229-.393-1.502 1.18 11.61 11.481H26.4a3.371 3.371 0 0 0 2.914-1.663l6.047-10.358-9.263-9.159-1.713.351-4.272-4.223" fill-opacity=".1" fill="#000" mask="url(#h)"/></g><path d="M130.239 274.56a1.567 1.567 0 0 1 2.127.564 1.53 1.53 0 0 1-.57 2.104 1.567 1.567 0 0 1-2.127-.564 1.53 1.53 0 0 1 .57-2.104m-12.591 2.668a1.53 1.53 0 0 1-.57-2.104 1.567 1.567 0 0 1 2.128-.564c.745.426 1 1.367.57 2.104a1.567 1.567 0 0 1-2.128.564m8.632 9.448c0 .85-.697 1.54-1.558 1.54-.86 0-1.557-.69-1.557-1.54 0-.85.697-1.54 1.557-1.54s1.558.69 1.558 1.54m1.535-6.244a3.191 3.191 0 0 1-.72 1.232l3.563 2.034.719-1.232-3.562-2.034m-6.701.295l-3.046 1.74.49.838 2.876-2.261-.32-.317" fill="#FFF"/><path d="M121.63 280.432l-.516.295.32.317-2.877 2.26.23.394 3.563-2.034a3.191 3.191 0 0 1-.72-1.232m3.734-8.132h-1.36v4.068h.003l-.001-.002.741-2.924.617-1.142" fill="#FFF"/><path d="M125.441 272.3h-.077l-.617 1.142-.741 2.924.001.001a3.274 3.274 0 0 1 1.434.001V272.3" fill="#FFF"/><path d="M125.441 279.078v.41h-.719l.36.616-.36.205 2.373 1.355c.326-.348.575-.767.72-1.232l-2.374-1.354" fill="#EDEDED"/><path d="M124.003 279.078l-2.373 1.354c.145.465.394.884.72 1.232l2.732-1.56-.36-.616h-.719v-.41" fill="#EDEDED"/><path d="M124.007 276.367l-.004.001v1.492l1.257-.254-1.253-1.239" fill="#FFF"/><path d="M124.722 276.289c-.245 0-.485.027-.715.078l1.253 1.24-1.257.253v1.628h1.438v-3.12a3.289 3.289 0 0 0-.719-.08" fill="#EDEDED"/><path d="M127.239 279.488c0 1.374-1.127 2.488-2.517 2.488s-2.516-1.114-2.516-2.488c0-1.374 1.126-2.488 2.516-2.488 1.39 0 2.517 1.114 2.517 2.488m-9.8 1.901a1.99 1.99 0 0 1 2.7.715 1.942 1.942 0 0 1-.724 2.67c-.945.54-2.154.22-2.7-.715a1.943 1.943 0 0 1 .724-2.67m12.591 3.386a1.943 1.943 0 0 1-.725-2.67 1.99 1.99 0 0 1 2.7-.716c.947.54 1.27 1.735.725 2.67a1.989 1.989 0 0 1-2.7.716M126.7 272.3c0 1.08-.886 1.955-1.978 1.955a1.966 1.966 0 0 1-1.977-1.955c0-1.08.885-1.955 1.977-1.955s1.978.876 1.978 1.955" fill="#FFF"/><path d="M401.5 133.5h-224m0 0l10.8 3v-6l-10.8 3z" stroke="#15C" stroke-linecap="square"/><path d="M402.5 89.5v167" stroke="#E0E0E0" stroke-linecap="square"/><path d="M402.5 89.5v167m-226-165v167" stroke="#979797" stroke-linecap="square"/><text font-family="Roboto-Regular, Roboto" font-size="10" letter-spacing="-.106" fill="#757575" transform="translate(-31 -21)"><tspan x="346" y="151">Pull calls</tspan></text><path d="M401.5 213.5h-224m0 0l10.8 3v-6l-10.8 3z" stroke="#15C" stroke-linecap="square"/><text font-family="Roboto-Regular, Roboto" font-size="10" letter-spacing="-.106" fill="#757575" transform="translate(-31 -21)"><tspan x="346" y="231">Acks</tspan></text><text font-family="Roboto-Regular, Roboto" font-size="10" letter-spacing="-.106" fill="#757575" transform="translate(-31 -21)"><tspan x="234" y="191">Messages</tspan></text><path d="M177.5 175.5h223m0 0l-10.8-3v6l10.8-3z" stroke="#15C" stroke-linecap="square"/></g></svg>